<?xml version="1.0" encoding="UTF-8"?>
<svg xmlns="http://www.w3.org/2000/svg" viewBox="0 0 280 180" width="280" height="180" font-family="'Inter', system-ui, sans-serif">
<path d="M 24.00 68.00 L 24.58 67.43 L 25.16 66.86 L 25.74 66.29 L 26.32 65.72 L 26.90 65.16 L 27.48 64.59 L 28.06 64.03 L 28.64 63.48 L 29.22 62.93 L 29.80 62.38 L 30.38 61.84 L 30.96 61.31 L 31.54 60.78 L 32.12 60.26 L 32.70 59.75 L 33.28 59.24 L 33.86 58.74 L 34.44 58.26 L 35.02 57.78 L 35.60 57.31 L 36.18 56.86 L 36.76 56.41 L 37.34 55.98 L 37.92 55.55 L 38.50 55.14 L 39.08 54.75 L 39.66 54.36 L 40.24 53.99 L 40.82 53.63 L 41.40 53.29 L 41.98 52.96 L 42.56 52.65 L 43.14 52.35 L 43.72 52.07 L 44.30 51.80 L 44.88 51.55 L 45.46 51.31 L 46.04 51.09 L 46.62 50.89 L 47.20 50.71 L 47.78 50.54 L 48.36 50.39 L 48.94 50.26 L 49.52 50.14 L 50.10 50.04 L 50.68 49.96 L 51.26 49.90 L 51.84 49.85 L 52.42 49.83 L 53.00 49.82 L 53.58 49.83 L 54.16 49.85 L 54.74 49.90 L 55.32 49.96 L 55.90 50.04 L 56.48 50.14 L 57.06 50.26 L 57.64 50.39 L 58.22 50.54 L 58.80 50.71 L 59.38 50.89 L 59.96 51.09 L 60.54 51.31 L 61.12 51.55 L 61.70 51.80 L 62.28 52.07 L 62.86 52.35 L 63.44 52.65 L 64.02 52.96 L 64.60 53.29 L 65.18 53.63 L 65.76 53.99 L 66.34 54.36 L 66.92 54.75 L 67.50 55.14 L 68.08 55.55 L 68.66 55.98 L 69.24 56.41 L 69.82 56.86 L 70.40 57.31 L 70.98 57.78 L 71.56 58.26 L 72.14 58.74 L 72.72 59.24 L 73.30 59.75 L 73.88 60.26 L 74.46 60.78 L 75.04 61.31 L 75.62 61.84 L 76.20 62.38 L 76.78 62.93 L 77.36 63.48 L 77.94 64.03 L 78.52 64.59 L 79.10 65.16 L 79.68 65.72 L 80.26 66.29 L 80.84 66.86 L 81.42 67.43 L 82.00 68.00 L 82.58 57.63 L 83.16 51.86 L 83.74 51.99 L 84.32 57.40 L 84.90 66.01 L 85.48 75.04 L 86.06 81.94 L 86.64 85.09 L 87.22 84.21 L 87.80 80.20 L 88.38 74.82 L 88.96 69.97 L 89.54 67.18 L 90.12 67.18 L 90.70 69.76 L 91.28 73.99 L 91.86 78.57 L 92.44 82.24 L 93.02 84.17 L 93.60 84.16 L 94.18 82.57 L 94.76 80.22 L 95.34 78.02 L 95.92 76.73 L 96.50 76.74 L 97.08 78.00 L 97.66 80.10 L 98.24 82.43 L 98.82 84.38 L 99.40 85.52 L 99.98 85.71 L 100.56 85.12 L 101.14 84.10 L 101.72 83.10 L 102.30 82.49 L 102.88 82.48 L 103.46 83.06 L 104.04 84.07 L 104.62 85.21 L 105.20 86.18 L 105.78 86.78 L 106.36 86.91 L 106.94 86.65 L 107.52 86.15 L 108.10 85.62 L 108.68 85.26 L 109.26 85.16 L 109.84 85.34 L 110.42 85.73 L 111.00 86.18 L 111.58 86.56 L 112.16 86.76 L 112.74 86.73 L 113.32 86.50 L 113.90 86.13 L 114.48 85.73 L 115.06 85.39 L 115.64 85.16 L 116.22 85.06 L 116.80 85.06 L 117.38 85.08 L 117.96 85.07 L 118.54 84.97 L 119.12 84.76 L 119.70 84.43 L 120.28 84.03 L 120.86 83.60 L 121.44 83.19 L 122.02 82.83 L 122.60 82.51 L 123.18 82.24 L 123.76 81.99 L 124.34 81.71 L 124.92 81.39 L 125.50 81.00 L 126.08 80.56 L 126.66 80.08 L 127.24 79.57 L 127.82 79.07 L 128.40 78.59 L 128.98 78.12 L 129.56 77.68 L 130.14 77.24 L 130.72 76.79 L 131.30 76.32 L 131.88 75.81 L 132.46 75.28 L 133.04 74.72 L 133.62 74.16 L 134.20 73.59 L 134.78 73.03 L 135.36 72.48 L 135.94 71.93 L 136.52 71.40 L 137.10 70.86 L 137.68 70.31 L 138.26 69.74 L 138.84 69.17 L 139.42 68.59 L 140.00 68.00 L 140.58 67.41 L 141.16 66.84 L 141.74 66.27 L 142.32 65.70 L 142.90 65.15 L 143.48 64.60 L 144.06 64.05 L 144.64 63.49 L 145.22 62.94 L 145.80 62.39 L 146.38 61.84 L 146.96 61.30 L 147.54 60.77 L 148.12 60.25 L 148.70 59.74 L 149.28 59.24 L 149.86 58.75 L 150.44 58.26 L 151.02 57.79 L 151.60 57.32 L 152.18 56.86 L 152.76 56.41 L 153.34 55.97 L 153.92 55.55 L 154.50 55.14 L 155.08 54.74 L 155.66 54.36 L 156.24 53.99 L 156.82 53.64 L 157.40 53.29 L 157.98 52.97 L 158.56 52.65 L 159.14 52.35 L 159.72 52.07 L 160.30 51.80 L 160.88 51.55 L 161.46 51.31 L 162.04 51.09 L 162.62 50.89 L 163.20 50.71 L 163.78 50.54 L 164.36 50.39 L 164.94 50.26 L 165.52 50.14 L 166.10 50.04 L 166.68 49.96 L 167.26 49.90 L 167.84 49.85 L 168.42 49.83 L 169.00 49.82 L 169.58 49.83 L 170.16 49.85 L 170.74 49.90 L 171.32 49.96 L 171.90 50.04 L 172.48 50.14 L 173.06 50.26 L 173.64 50.39 L 174.22 50.54 L 174.80 50.71 L 175.38 50.89 L 175.96 51.10 L 176.54 51.31 L 177.12 51.55 L 177.70 51.80 L 178.28 52.07 L 178.86 52.35 L 179.44 52.65 L 180.02 52.96 L 180.60 53.29 L 181.18 53.63 L 181.76 53.99 L 182.34 54.36 L 182.92 54.75 L 183.50 55.14 L 184.08 55.55 L 184.66 55.98 L 185.24 56.41 L 185.82 56.86 L 186.40 57.31 L 186.98 57.78 L 187.56 58.26 L 188.14 58.74 L 188.72 59.24 L 189.30 59.75 L 189.88 60.26 L 190.46 60.78 L 191.04 61.31 L 191.62 61.84 L 192.20 62.38 L 192.78 62.93 L 193.36 63.48 L 193.94 64.03 L 194.52 64.59 L 195.10 65.16 L 195.68 65.72 L 196.26 66.29 L 196.84 66.86 L 197.42 67.43 L 198.00 68.00 L 198.58 68.57 L 199.16 69.14 L 199.74 69.71 L 200.32 70.28 L 200.90 70.84 L 201.48 71.41 L 202.06 71.97 L 202.64 72.52 L 203.22 73.07 L 203.80 73.62 L 204.38 74.16 L 204.96 74.69 L 205.54 75.22 L 206.12 75.74 L 206.70 76.25 L 207.28 76.76 L 207.86 77.26 L 208.44 77.74 L 209.02 78.22 L 209.60 78.69 L 210.18 79.14 L 210.76 79.59 L 211.34 80.02 L 211.92 80.45 L 212.50 80.86 L 213.08 81.25 L 213.66 81.64 L 214.24 82.01 L 214.82 82.37 L 215.40 82.71 L 215.98 83.04 L 216.56 83.35 L 217.14 83.65 L 217.72 83.93 L 218.30 84.20 L 218.88 84.45 L 219.46 84.69 L 220.04 84.91 L 220.62 85.11 L 221.20 85.29 L 221.78 85.46 L 222.36 85.61 L 222.94 85.74 L 223.52 85.86 L 224.10 85.96 L 224.68 86.04 L 225.26 86.10 L 225.84 86.15 L 226.42 86.17 L 227.00 86.18 L 227.58 86.17 L 228.16 86.15 L 228.74 86.10 L 229.32 86.04 L 229.90 85.96 L 230.48 85.86 L 231.06 85.74 L 231.64 85.61 L 232.22 85.46 L 232.80 85.29 L 233.38 85.11 L 233.96 84.91 L 234.54 84.69 L 235.12 84.45 L 235.70 84.20 L 236.28 83.93 L 236.86 83.65 L 237.44 83.35 L 238.02 83.04 L 238.60 82.71 L 239.18 82.37 L 239.76 82.01 L 240.34 81.64 L 240.92 81.25 L 241.50 80.86 L 242.08 80.45 L 242.66 80.02 L 243.24 79.59 L 243.82 79.14 L 244.40 78.69 L 244.98 78.22 L 245.56 77.74 L 246.14 77.26 L 246.72 76.76 L 247.30 76.25 L 247.88 75.74 L 248.46 75.22 L 249.04 74.69 L 249.62 74.16 L 250.20 73.62 L 250.78 73.07 L 251.36 72.52 L 251.94 71.97 L 252.52 71.41 L 253.10 70.84 L 253.68 70.28 L 254.26 69.71 L 254.84 69.14 L 255.42 68.57 L 256.00 68.00" fill="none" stroke="#1A7A44" stroke-width="2.0" stroke-linecap="round" stroke-linejoin="round"/>
<text x="140.0" y="155" text-anchor="middle" font-size="11" font-weight="600" letter-spacing="0.1em" fill="#5C6578">TRANSIENTS</text>
</svg>