<?xml version="1.0" encoding="UTF-8"?>
<svg xmlns="http://www.w3.org/2000/svg" viewBox="0 0 280 180" width="280" height="180" font-family="'Inter', system-ui, sans-serif">
<path d="M 24.00 57.82 L 24.58 55.67 L 25.16 54.32 L 25.74 53.72 L 26.32 53.74 L 26.90 54.19 L 27.48 54.86 L 28.06 55.52 L 28.64 55.99 L 29.22 56.13 L 29.80 55.89 L 30.38 55.30 L 30.96 54.43 L 31.54 53.46 L 32.12 52.55 L 32.70 51.90 L 33.28 51.64 L 33.86 51.85 L 34.44 52.55 L 35.02 53.67 L 35.60 55.04 L 36.18 56.46 L 36.76 57.70 L 37.34 58.53 L 37.92 58.77 L 38.50 58.28 L 39.08 57.05 L 39.66 55.13 L 40.24 52.67 L 40.82 49.90 L 41.40 47.08 L 41.98 44.46 L 42.56 42.27 L 43.14 40.70 L 43.72 39.81 L 44.30 39.62 L 44.88 40.00 L 45.46 40.80 L 46.04 41.79 L 46.62 42.73 L 47.20 43.41 L 47.78 43.63 L 48.36 43.31 L 48.94 42.40 L 49.52 40.98 L 50.10 39.17 L 50.68 37.15 L 51.26 35.12 L 51.84 33.27 L 52.42 31.79 L 53.00 30.78 L 53.58 30.33 L 54.16 30.41 L 54.74 30.99 L 55.32 31.98 L 55.90 33.25 L 56.48 34.70 L 57.06 36.22 L 57.64 37.74 L 58.22 39.22 L 58.80 40.65 L 59.38 42.05 L 59.96 43.45 L 60.54 44.88 L 61.12 46.36 L 61.70 47.90 L 62.28 49.47 L 62.86 51.02 L 63.44 52.48 L 64.02 53.78 L 64.60 54.84 L 65.18 55.61 L 65.76 56.04 L 66.34 56.14 L 66.92 55.91 L 67.50 55.40 L 68.08 54.67 L 68.66 53.78 L 69.24 52.78 L 69.82 51.72 L 70.40 50.64 L 70.98 49.56 L 71.56 48.47 L 72.14 47.41 L 72.72 46.38 L 73.30 45.44 L 73.88 44.65 L 74.46 44.09 L 75.04 43.89 L 75.62 44.17 L 76.20 45.02 L 76.78 46.55 L 77.36 48.78 L 77.94 51.70 L 78.52 55.22 L 79.10 59.21 L 79.68 63.44 L 80.26 67.69 L 80.84 71.71 L 81.42 75.27 L 82.00 78.18 L 82.58 80.33 L 83.16 81.68 L 83.74 82.28 L 84.32 82.26 L 84.90 81.81 L 85.48 81.14 L 86.06 80.48 L 86.64 80.01 L 87.22 79.87 L 87.80 80.11 L 88.38 80.70 L 88.96 81.57 L 89.54 82.54 L 90.12 83.45 L 90.70 84.10 L 91.28 84.36 L 91.86 84.15 L 92.44 83.45 L 93.02 82.33 L 93.60 80.96 L 94.18 79.54 L 94.76 78.30 L 95.34 77.47 L 95.92 77.23 L 96.50 77.72 L 97.08 78.95 L 97.66 80.87 L 98.24 83.33 L 98.82 86.10 L 99.40 88.92 L 99.98 91.54 L 100.56 93.73 L 101.14 95.30 L 101.72 96.19 L 102.30 96.38 L 102.88 96.00 L 103.46 95.20 L 104.04 94.21 L 104.62 93.27 L 105.20 92.59 L 105.78 92.37 L 106.36 92.69 L 106.94 93.60 L 107.52 95.02 L 108.10 96.83 L 108.68 98.85 L 109.26 100.88 L 109.84 102.73 L 110.42 104.21 L 111.00 105.22 L 111.58 105.67 L 112.16 105.59 L 112.74 105.01 L 113.32 104.02 L 113.90 102.75 L 114.48 101.30 L 115.06 99.78 L 115.64 98.26 L 116.22 96.78 L 116.80 95.35 L 117.38 93.95 L 117.96 92.55 L 118.54 91.12 L 119.12 89.64 L 119.70 88.10 L 120.28 86.53 L 120.86 84.98 L 121.44 83.52 L 122.02 82.22 L 122.60 81.16 L 123.18 80.39 L 123.76 79.96 L 124.34 79.86 L 124.92 80.09 L 125.50 80.60 L 126.08 81.33 L 126.66 82.22 L 127.24 83.22 L 127.82 84.28 L 128.40 85.36 L 128.98 86.44 L 129.56 87.53 L 130.14 88.59 L 130.72 89.62 L 131.30 90.56 L 131.88 91.35 L 132.46 91.91 L 133.04 92.11 L 133.62 91.83 L 134.20 90.98 L 134.78 89.45 L 135.36 87.22 L 135.94 84.30 L 136.52 80.78 L 137.10 76.79 L 137.68 72.56 L 138.26 68.31 L 138.84 64.29 L 139.42 60.73 L 140.00 57.82 L 140.58 55.67 L 141.16 54.32 L 141.74 53.72 L 142.32 53.74 L 142.90 54.19 L 143.48 54.86 L 144.06 55.52 L 144.64 55.99 L 145.22 56.13 L 145.80 55.89 L 146.38 55.30 L 146.96 54.43 L 147.54 53.46 L 148.12 52.55 L 148.70 51.90 L 149.28 51.64 L 149.86 51.85 L 150.44 52.55 L 151.02 53.67 L 151.60 55.04 L 152.18 56.46 L 152.76 57.70 L 153.34 58.53 L 153.92 58.77 L 154.50 58.28 L 155.08 57.05 L 155.66 55.13 L 156.24 52.67 L 156.82 49.90 L 157.40 47.08 L 157.98 44.46 L 158.56 42.27 L 159.14 40.70 L 159.72 39.81 L 160.30 39.62 L 160.88 40.00 L 161.46 40.80 L 162.04 41.79 L 162.62 42.73 L 163.20 43.41 L 163.78 43.63 L 164.36 43.31 L 164.94 42.40 L 165.52 40.98 L 166.10 39.17 L 166.68 37.15 L 167.26 35.12 L 167.84 33.27 L 168.42 31.79 L 169.00 30.78 L 169.58 30.33 L 170.16 30.41 L 170.74 30.99 L 171.32 31.98 L 171.90 33.25 L 172.48 34.70 L 173.06 36.22 L 173.64 37.74 L 174.22 39.22 L 174.80 40.65 L 175.38 42.05 L 175.96 43.45 L 176.54 44.88 L 177.12 46.36 L 177.70 47.90 L 178.28 49.47 L 178.86 51.02 L 179.44 52.48 L 180.02 53.78 L 180.60 54.84 L 181.18 55.61 L 181.76 56.04 L 182.34 56.14 L 182.92 55.91 L 183.50 55.40 L 184.08 54.67 L 184.66 53.78 L 185.24 52.78 L 185.82 51.72 L 186.40 50.64 L 186.98 49.56 L 187.56 48.47 L 188.14 47.41 L 188.72 46.38 L 189.30 45.44 L 189.88 44.65 L 190.46 44.09 L 191.04 43.89 L 191.62 44.17 L 192.20 45.02 L 192.78 46.55 L 193.36 48.78 L 193.94 51.70 L 194.52 55.22 L 195.10 59.21 L 195.68 63.44 L 196.26 67.69 L 196.84 71.71 L 197.42 75.27 L 198.00 78.18 L 198.58 80.33 L 199.16 81.68 L 199.74 82.28 L 200.32 82.26 L 200.90 81.81 L 201.48 81.14 L 202.06 80.48 L 202.64 80.01 L 203.22 79.87 L 203.80 80.11 L 204.38 80.70 L 204.96 81.57 L 205.54 82.54 L 206.12 83.45 L 206.70 84.10 L 207.28 84.36 L 207.86 84.15 L 208.44 83.45 L 209.02 82.33 L 209.60 80.96 L 210.18 79.54 L 210.76 78.30 L 211.34 77.47 L 211.92 77.23 L 212.50 77.72 L 213.08 78.95 L 213.66 80.87 L 214.24 83.33 L 214.82 86.10 L 215.40 88.92 L 215.98 91.54 L 216.56 93.73 L 217.14 95.30 L 217.72 96.19 L 218.30 96.38 L 218.88 96.00 L 219.46 95.20 L 220.04 94.21 L 220.62 93.27 L 221.20 92.59 L 221.78 92.37 L 222.36 92.69 L 222.94 93.60 L 223.52 95.02 L 224.10 96.83 L 224.68 98.85 L 225.26 100.88 L 225.84 102.73 L 226.42 104.21 L 227.00 105.22 L 227.58 105.67 L 228.16 105.59 L 228.74 105.01 L 229.32 104.02 L 229.90 102.75 L 230.48 101.30 L 231.06 99.78 L 231.64 98.26 L 232.22 96.78 L 232.80 95.35 L 233.38 93.95 L 233.96 92.55 L 234.54 91.12 L 235.12 89.64 L 235.70 88.10 L 236.28 86.53 L 236.86 84.98 L 237.44 83.52 L 238.02 82.22 L 238.60 81.16 L 239.18 80.39 L 239.76 79.96 L 240.34 79.86 L 240.92 80.09 L 241.50 80.60 L 242.08 81.33 L 242.66 82.22 L 243.24 83.22 L 243.82 84.28 L 244.40 85.36 L 244.98 86.44 L 245.56 87.53 L 246.14 88.59 L 246.72 89.62 L 247.30 90.56 L 247.88 91.35 L 248.46 91.91 L 249.04 92.11 L 249.62 91.83 L 250.20 90.98 L 250.78 89.45 L 251.36 87.22 L 251.94 84.30 L 252.52 80.78 L 253.10 76.79 L 253.68 72.56 L 254.26 68.31 L 254.84 64.29 L 255.42 60.73 L 256.00 57.82" fill="none" stroke="#1A7A44" stroke-width="2.0" stroke-linecap="round" stroke-linejoin="round"/>
<text x="140.0" y="155" text-anchor="middle" font-size="11" font-weight="600" letter-spacing="0.1em" fill="#5C6578">HARMONICS</text>
</svg>