<?xml version="1.0" encoding="UTF-8"?>
<svg xmlns="http://www.w3.org/2000/svg" viewBox="0 0 280 180" width="280" height="180" font-family="'Inter', system-ui, sans-serif">
<path d="M 24.00 102.64 L 24.58 102.00 L 25.16 101.32 L 25.74 100.61 L 26.32 99.86 L 26.90 99.09 L 27.48 98.28 L 28.06 97.44 L 28.64 96.58 L 29.22 95.69 L 29.80 94.77 L 30.38 93.82 L 30.96 92.85 L 31.54 91.85 L 32.12 90.83 L 32.70 89.79 L 33.28 88.72 L 33.86 87.64 L 34.44 86.53 L 35.02 85.41 L 35.60 84.27 L 36.18 83.11 L 36.76 81.94 L 37.34 80.76 L 37.92 79.56 L 38.50 78.35 L 39.08 77.13 L 39.66 75.91 L 40.24 74.67 L 40.82 73.43 L 41.40 72.18 L 41.98 70.93 L 42.56 69.68 L 43.14 68.42 L 43.72 67.16 L 44.30 65.91 L 44.88 64.65 L 45.46 63.40 L 46.04 62.16 L 46.62 60.92 L 47.20 59.68 L 47.78 58.46 L 48.36 57.24 L 48.94 56.04 L 49.52 54.85 L 50.10 53.67 L 50.68 52.50 L 51.26 51.35 L 51.84 50.21 L 52.42 49.10 L 53.00 48.00 L 53.58 46.92 L 54.16 45.86 L 54.74 44.83 L 55.32 43.82 L 55.90 42.83 L 56.48 41.86 L 57.06 40.92 L 57.64 40.01 L 58.22 39.13 L 58.80 38.27 L 59.38 37.45 L 59.96 36.65 L 60.54 35.89 L 61.12 35.15 L 61.70 34.45 L 62.28 33.79 L 62.86 33.15 L 63.44 32.55 L 64.02 31.99 L 64.60 31.46 L 65.18 30.97 L 65.76 30.51 L 66.34 30.09 L 66.92 29.71 L 67.50 29.36 L 68.08 29.06 L 68.66 28.79 L 69.24 28.56 L 69.82 28.37 L 70.40 28.22 L 70.98 28.11 L 71.56 28.04 L 72.14 28.00 L 72.72 28.01 L 73.30 28.05 L 73.88 28.14 L 74.46 28.27 L 75.04 28.43 L 75.62 28.63 L 76.20 28.87 L 76.78 29.15 L 77.36 29.47 L 77.94 29.83 L 78.52 30.22 L 79.10 30.66 L 79.68 31.13 L 80.26 31.63 L 80.84 32.17 L 81.42 32.75 L 82.00 33.36 L 82.58 34.00 L 83.16 34.68 L 83.74 35.39 L 84.32 36.14 L 84.90 36.91 L 85.48 37.72 L 86.06 38.56 L 86.64 39.42 L 87.22 40.31 L 87.80 41.23 L 88.38 42.18 L 88.96 43.15 L 89.54 44.15 L 90.12 45.17 L 90.70 46.21 L 91.28 47.28 L 91.86 48.36 L 92.44 49.47 L 93.02 50.59 L 93.60 51.73 L 94.18 52.89 L 94.76 54.06 L 95.34 55.24 L 95.92 56.44 L 96.50 57.65 L 97.08 58.87 L 97.66 60.09 L 98.24 61.33 L 98.82 62.57 L 99.40 63.82 L 99.98 65.07 L 100.56 66.32 L 101.14 67.58 L 101.72 68.84 L 102.30 70.09 L 102.88 71.35 L 103.46 72.60 L 104.04 73.84 L 104.62 75.08 L 105.20 76.32 L 105.78 77.54 L 106.36 78.76 L 106.94 79.96 L 107.52 81.15 L 108.10 82.33 L 108.68 83.50 L 109.26 84.65 L 109.84 85.79 L 110.42 86.90 L 111.00 88.00 L 111.58 89.08 L 112.16 90.14 L 112.74 91.17 L 113.32 92.18 L 113.90 93.17 L 114.48 94.14 L 115.06 95.08 L 115.64 95.99 L 116.22 96.87 L 116.80 97.73 L 117.38 98.55 L 117.96 99.35 L 118.54 100.11 L 119.12 100.85 L 119.70 101.55 L 120.28 102.21 L 120.86 102.85 L 121.44 103.45 L 122.02 104.01 L 122.60 104.54 L 123.18 105.03 L 123.76 105.49 L 124.34 105.91 L 124.92 106.29 L 125.50 106.64 L 126.08 106.94 L 126.66 107.21 L 127.24 107.44 L 127.82 107.63 L 128.40 107.78 L 128.98 107.89 L 129.56 107.96 L 130.14 108.00 L 130.72 107.99 L 131.30 107.95 L 131.88 107.86 L 132.46 107.73 L 133.04 107.57 L 133.62 107.37 L 134.20 107.13 L 134.78 106.85 L 135.36 106.53 L 135.94 106.17 L 136.52 105.78 L 137.10 105.34 L 137.68 104.87 L 138.26 104.37 L 138.84 103.83 L 139.42 103.25 L 140.00 102.64 L 140.58 102.00 L 141.16 101.32 L 141.74 100.61 L 142.32 99.86 L 142.90 99.09 L 143.48 98.28 L 144.06 97.44 L 144.64 96.58 L 145.22 95.69 L 145.80 94.77 L 146.38 93.82 L 146.96 92.85 L 147.54 91.85 L 148.12 90.83 L 148.70 89.79 L 149.28 88.72 L 149.86 87.64 L 150.44 86.53 L 151.02 85.41 L 151.60 84.27 L 152.18 83.11 L 152.76 81.94 L 153.34 80.76 L 153.92 79.56 L 154.50 78.35 L 155.08 77.13 L 155.66 75.91 L 156.24 74.67 L 156.82 73.43 L 157.40 72.18 L 157.98 70.93 L 158.56 69.68 L 159.14 68.42 L 159.72 67.16 L 160.30 65.91 L 160.88 64.65 L 161.46 63.40 L 162.04 62.16 L 162.62 60.92 L 163.20 59.68 L 163.78 58.46 L 164.36 57.24 L 164.94 56.04 L 165.52 54.85 L 166.10 53.67 L 166.68 52.50 L 167.26 51.35 L 167.84 50.21 L 168.42 49.10 L 169.00 48.00 L 169.58 46.92 L 170.16 45.86 L 170.74 44.83 L 171.32 43.82 L 171.90 42.83 L 172.48 41.86 L 173.06 40.92 L 173.64 40.01 L 174.22 39.13 L 174.80 38.27 L 175.38 37.45 L 175.96 36.65 L 176.54 35.89 L 177.12 35.15 L 177.70 34.45 L 178.28 33.79 L 178.86 33.15 L 179.44 32.55 L 180.02 31.99 L 180.60 31.46 L 181.18 30.97 L 181.76 30.51 L 182.34 30.09 L 182.92 29.71 L 183.50 29.36 L 184.08 29.06 L 184.66 28.79 L 185.24 28.56 L 185.82 28.37 L 186.40 28.22 L 186.98 28.11 L 187.56 28.04 L 188.14 28.00 L 188.72 28.01 L 189.30 28.05 L 189.88 28.14 L 190.46 28.27 L 191.04 28.43 L 191.62 28.63 L 192.20 28.87 L 192.78 29.15 L 193.36 29.47 L 193.94 29.83 L 194.52 30.22 L 195.10 30.66 L 195.68 31.13 L 196.26 31.63 L 196.84 32.17 L 197.42 32.75 L 198.00 33.36 L 198.58 34.00 L 199.16 34.68 L 199.74 35.39 L 200.32 36.14 L 200.90 36.91 L 201.48 37.72 L 202.06 38.56 L 202.64 39.42 L 203.22 40.31 L 203.80 41.23 L 204.38 42.18 L 204.96 43.15 L 205.54 44.15 L 206.12 45.17 L 206.70 46.21 L 207.28 47.28 L 207.86 48.36 L 208.44 49.47 L 209.02 50.59 L 209.60 51.73 L 210.18 52.89 L 210.76 54.06 L 211.34 55.24 L 211.92 56.44 L 212.50 57.65 L 213.08 58.87 L 213.66 60.09 L 214.24 61.33 L 214.82 62.57 L 215.40 63.82 L 215.98 65.07 L 216.56 66.32 L 217.14 67.58 L 217.72 68.84 L 218.30 70.09 L 218.88 71.35 L 219.46 72.60 L 220.04 73.84 L 220.62 75.08 L 221.20 76.32 L 221.78 77.54 L 222.36 78.76 L 222.94 79.96 L 223.52 81.15 L 224.10 82.33 L 224.68 83.50 L 225.26 84.65 L 225.84 85.79 L 226.42 86.90 L 227.00 88.00 L 227.58 89.08 L 228.16 90.14 L 228.74 91.17 L 229.32 92.18 L 229.90 93.17 L 230.48 94.14 L 231.06 95.08 L 231.64 95.99 L 232.22 96.87 L 232.80 97.73 L 233.38 98.55 L 233.96 99.35 L 234.54 100.11 L 235.12 100.85 L 235.70 101.55 L 236.28 102.21 L 236.86 102.85 L 237.44 103.45 L 238.02 104.01 L 238.60 104.54 L 239.18 105.03 L 239.76 105.49 L 240.34 105.91 L 240.92 106.29 L 241.50 106.64 L 242.08 106.94 L 242.66 107.21 L 243.24 107.44 L 243.82 107.63 L 244.40 107.78 L 244.98 107.89 L 245.56 107.96 L 246.14 108.00 L 246.72 107.99 L 247.30 107.95 L 247.88 107.86 L 248.46 107.73 L 249.04 107.57 L 249.62 107.37 L 250.20 107.13 L 250.78 106.85 L 251.36 106.53 L 251.94 106.17 L 252.52 105.78 L 253.10 105.34 L 253.68 104.87 L 254.26 104.37 L 254.84 103.83 L 255.42 103.25 L 256.00 102.64" fill="none" stroke="#5C6578" stroke-width="1.75" stroke-linecap="round" stroke-linejoin="round"/>
<path d="M 24.00 68.00 L 24.58 66.74 L 25.16 65.49 L 25.74 64.24 L 26.32 62.99 L 26.90 61.74 L 27.48 60.50 L 28.06 59.27 L 28.64 58.05 L 29.22 56.84 L 29.80 55.64 L 30.38 54.45 L 30.96 53.28 L 31.54 52.11 L 32.12 50.97 L 32.70 49.84 L 33.28 48.73 L 33.86 47.64 L 34.44 46.57 L 35.02 45.52 L 35.60 44.49 L 36.18 43.48 L 36.76 42.50 L 37.34 41.55 L 37.92 40.62 L 38.50 39.72 L 39.08 38.84 L 39.66 38.00 L 40.24 37.18 L 40.82 36.39 L 41.40 35.64 L 41.98 34.92 L 42.56 34.23 L 43.14 33.57 L 43.72 32.95 L 44.30 32.36 L 44.88 31.81 L 45.46 31.29 L 46.04 30.81 L 46.62 30.36 L 47.20 29.96 L 47.78 29.59 L 48.36 29.26 L 48.94 28.96 L 49.52 28.71 L 50.10 28.49 L 50.68 28.32 L 51.26 28.18 L 51.84 28.08 L 52.42 28.02 L 53.00 28.00 L 53.58 28.02 L 54.16 28.08 L 54.74 28.18 L 55.32 28.32 L 55.90 28.49 L 56.48 28.71 L 57.06 28.96 L 57.64 29.26 L 58.22 29.59 L 58.80 29.96 L 59.38 30.36 L 59.96 30.81 L 60.54 31.29 L 61.12 31.81 L 61.70 32.36 L 62.28 32.95 L 62.86 33.57 L 63.44 34.23 L 64.02 34.92 L 64.60 35.64 L 65.18 36.39 L 65.76 37.18 L 66.34 38.00 L 66.92 38.84 L 67.50 39.72 L 68.08 40.62 L 68.66 41.55 L 69.24 42.50 L 69.82 43.48 L 70.40 44.49 L 70.98 45.52 L 71.56 46.57 L 72.14 47.64 L 72.72 48.73 L 73.30 49.84 L 73.88 50.97 L 74.46 52.11 L 75.04 53.28 L 75.62 54.45 L 76.20 55.64 L 76.78 56.84 L 77.36 58.05 L 77.94 59.27 L 78.52 60.50 L 79.10 61.74 L 79.68 62.99 L 80.26 64.24 L 80.84 65.49 L 81.42 66.74 L 82.00 68.00 L 82.58 69.26 L 83.16 70.51 L 83.74 71.76 L 84.32 73.01 L 84.90 74.26 L 85.48 75.50 L 86.06 76.73 L 86.64 77.95 L 87.22 79.16 L 87.80 80.36 L 88.38 81.55 L 88.96 82.72 L 89.54 83.89 L 90.12 85.03 L 90.70 86.16 L 91.28 87.27 L 91.86 88.36 L 92.44 89.43 L 93.02 90.48 L 93.60 91.51 L 94.18 92.52 L 94.76 93.50 L 95.34 94.45 L 95.92 95.38 L 96.50 96.28 L 97.08 97.16 L 97.66 98.00 L 98.24 98.82 L 98.82 99.61 L 99.40 100.36 L 99.98 101.08 L 100.56 101.77 L 101.14 102.43 L 101.72 103.05 L 102.30 103.64 L 102.88 104.19 L 103.46 104.71 L 104.04 105.19 L 104.62 105.64 L 105.20 106.04 L 105.78 106.41 L 106.36 106.74 L 106.94 107.04 L 107.52 107.29 L 108.10 107.51 L 108.68 107.68 L 109.26 107.82 L 109.84 107.92 L 110.42 107.98 L 111.00 108.00 L 111.58 107.98 L 112.16 107.92 L 112.74 107.82 L 113.32 107.68 L 113.90 107.51 L 114.48 107.29 L 115.06 107.04 L 115.64 106.74 L 116.22 106.41 L 116.80 106.04 L 117.38 105.64 L 117.96 105.19 L 118.54 104.71 L 119.12 104.19 L 119.70 103.64 L 120.28 103.05 L 120.86 102.43 L 121.44 101.77 L 122.02 101.08 L 122.60 100.36 L 123.18 99.61 L 123.76 98.82 L 124.34 98.00 L 124.92 97.16 L 125.50 96.28 L 126.08 95.38 L 126.66 94.45 L 127.24 93.50 L 127.82 92.52 L 128.40 91.51 L 128.98 90.48 L 129.56 89.43 L 130.14 88.36 L 130.72 87.27 L 131.30 86.16 L 131.88 85.03 L 132.46 83.89 L 133.04 82.72 L 133.62 81.55 L 134.20 80.36 L 134.78 79.16 L 135.36 77.95 L 135.94 76.73 L 136.52 75.50 L 137.10 74.26 L 137.68 73.01 L 138.26 71.76 L 138.84 70.51 L 139.42 69.26 L 140.00 68.00 L 140.58 66.74 L 141.16 65.49 L 141.74 64.24 L 142.32 62.99 L 142.90 61.74 L 143.48 60.50 L 144.06 59.27 L 144.64 58.05 L 145.22 56.84 L 145.80 55.64 L 146.38 54.45 L 146.96 53.28 L 147.54 52.11 L 148.12 50.97 L 148.70 49.84 L 149.28 48.73 L 149.86 47.64 L 150.44 46.57 L 151.02 45.52 L 151.60 44.49 L 152.18 43.48 L 152.76 42.50 L 153.34 41.55 L 153.92 40.62 L 154.50 39.72 L 155.08 38.84 L 155.66 38.00 L 156.24 37.18 L 156.82 36.39 L 157.40 35.64 L 157.98 34.92 L 158.56 34.23 L 159.14 33.57 L 159.72 32.95 L 160.30 32.36 L 160.88 31.81 L 161.46 31.29 L 162.04 30.81 L 162.62 30.36 L 163.20 29.96 L 163.78 29.59 L 164.36 29.26 L 164.94 28.96 L 165.52 28.71 L 166.10 28.49 L 166.68 28.32 L 167.26 28.18 L 167.84 28.08 L 168.42 28.02 L 169.00 28.00 L 169.58 28.02 L 170.16 28.08 L 170.74 28.18 L 171.32 28.32 L 171.90 28.49 L 172.48 28.71 L 173.06 28.96 L 173.64 29.26 L 174.22 29.59 L 174.80 29.96 L 175.38 30.36 L 175.96 30.81 L 176.54 31.29 L 177.12 31.81 L 177.70 32.36 L 178.28 32.95 L 178.86 33.57 L 179.44 34.23 L 180.02 34.92 L 180.60 35.64 L 181.18 36.39 L 181.76 37.18 L 182.34 38.00 L 182.92 38.84 L 183.50 39.72 L 184.08 40.62 L 184.66 41.55 L 185.24 42.50 L 185.82 43.48 L 186.40 44.49 L 186.98 45.52 L 187.56 46.57 L 188.14 47.64 L 188.72 48.73 L 189.30 49.84 L 189.88 50.97 L 190.46 52.11 L 191.04 53.28 L 191.62 54.45 L 192.20 55.64 L 192.78 56.84 L 193.36 58.05 L 193.94 59.27 L 194.52 60.50 L 195.10 61.74 L 195.68 62.99 L 196.26 64.24 L 196.84 65.49 L 197.42 66.74 L 198.00 68.00 L 198.58 69.26 L 199.16 70.51 L 199.74 71.76 L 200.32 73.01 L 200.90 74.26 L 201.48 75.50 L 202.06 76.73 L 202.64 77.95 L 203.22 79.16 L 203.80 80.36 L 204.38 81.55 L 204.96 82.72 L 205.54 83.89 L 206.12 85.03 L 206.70 86.16 L 207.28 87.27 L 207.86 88.36 L 208.44 89.43 L 209.02 90.48 L 209.60 91.51 L 210.18 92.52 L 210.76 93.50 L 211.34 94.45 L 211.92 95.38 L 212.50 96.28 L 213.08 97.16 L 213.66 98.00 L 214.24 98.82 L 214.82 99.61 L 215.40 100.36 L 215.98 101.08 L 216.56 101.77 L 217.14 102.43 L 217.72 103.05 L 218.30 103.64 L 218.88 104.19 L 219.46 104.71 L 220.04 105.19 L 220.62 105.64 L 221.20 106.04 L 221.78 106.41 L 222.36 106.74 L 222.94 107.04 L 223.52 107.29 L 224.10 107.51 L 224.68 107.68 L 225.26 107.82 L 225.84 107.92 L 226.42 107.98 L 227.00 108.00 L 227.58 107.98 L 228.16 107.92 L 228.74 107.82 L 229.32 107.68 L 229.90 107.51 L 230.48 107.29 L 231.06 107.04 L 231.64 106.74 L 232.22 106.41 L 232.80 106.04 L 233.38 105.64 L 233.96 105.19 L 234.54 104.71 L 235.12 104.19 L 235.70 103.64 L 236.28 103.05 L 236.86 102.43 L 237.44 101.77 L 238.02 101.08 L 238.60 100.36 L 239.18 99.61 L 239.76 98.82 L 240.34 98.00 L 240.92 97.16 L 241.50 96.28 L 242.08 95.38 L 242.66 94.45 L 243.24 93.50 L 243.82 92.52 L 244.40 91.51 L 244.98 90.48 L 245.56 89.43 L 246.14 88.36 L 246.72 87.27 L 247.30 86.16 L 247.88 85.03 L 248.46 83.89 L 249.04 82.72 L 249.62 81.55 L 250.20 80.36 L 250.78 79.16 L 251.36 77.95 L 251.94 76.73 L 252.52 75.50 L 253.10 74.26 L 253.68 73.01 L 254.26 71.76 L 254.84 70.51 L 255.42 69.26 L 256.00 68.00" fill="none" stroke="#1A7A44" stroke-width="2.0" stroke-linecap="round" stroke-linejoin="round"/>
<text x="140.0" y="155" text-anchor="middle" font-size="11" font-weight="600" letter-spacing="0.1em" fill="#5C6578">REACTIVE POWER</text>
</svg>