<?xml version="1.0" encoding="UTF-8"?>
<svg xmlns="http://www.w3.org/2000/svg" viewBox="0 0 280 180" width="280" height="180" font-family="'Inter', system-ui, sans-serif">
<path d="M 24.00 68.00 L 24.46 66.28 L 24.93 64.55 L 25.39 62.82 L 25.86 61.09 L 26.32 59.38 L 26.78 57.69 L 27.25 56.02 L 27.71 54.39 L 28.18 52.78 L 28.64 51.22 L 29.10 49.71 L 29.57 48.24 L 30.03 46.83 L 30.50 45.48 L 30.96 44.20 L 31.42 42.98 L 31.89 41.83 L 32.35 40.76 L 32.82 39.77 L 33.28 38.86 L 33.74 38.03 L 34.21 37.29 L 34.67 36.64 L 35.14 36.07 L 35.60 35.59 L 36.06 35.21 L 36.53 34.91 L 36.99 34.70 L 37.46 34.59 L 37.92 34.56 L 38.38 34.62 L 38.85 34.77 L 39.31 35.01 L 39.78 35.33 L 40.24 35.74 L 40.70 36.22 L 41.17 36.79 L 41.63 37.43 L 42.10 38.14 L 42.56 38.92 L 43.02 39.78 L 43.49 40.69 L 43.95 41.67 L 44.42 42.70 L 44.88 43.79 L 45.34 44.93 L 45.81 46.12 L 46.27 47.36 L 46.74 48.63 L 47.20 49.94 L 47.66 51.28 L 48.13 52.66 L 48.59 54.06 L 49.06 55.48 L 49.52 56.92 L 49.98 58.38 L 50.45 59.85 L 50.91 61.32 L 51.38 62.81 L 51.84 64.29 L 52.30 65.78 L 52.77 67.26 L 53.23 68.74 L 53.70 70.20 L 54.16 71.65 L 54.62 73.09 L 55.09 74.50 L 55.55 75.90 L 56.02 77.27 L 56.48 78.61 L 56.94 79.92 L 57.41 81.20 L 57.87 82.45 L 58.34 83.66 L 58.80 84.83 L 59.26 85.95 L 59.73 87.04 L 60.19 88.07 L 60.66 89.06 L 61.12 90.00 L 61.58 90.88 L 62.05 91.71 L 62.51 92.48 L 62.98 93.19 L 63.44 93.85 L 63.90 94.44 L 64.37 94.96 L 64.83 95.43 L 65.30 95.82 L 65.76 96.15 L 66.22 96.41 L 66.69 96.60 L 67.15 96.72 L 67.62 96.77 L 68.08 96.75 L 68.54 96.66 L 69.01 96.49 L 69.47 96.25 L 69.94 95.94 L 70.40 95.56 L 70.86 95.10 L 71.33 94.58 L 71.79 93.98 L 72.26 93.32 L 72.72 92.59 L 73.18 91.80 L 73.65 90.94 L 74.11 90.03 L 74.58 89.05 L 75.04 88.02 L 75.50 86.93 L 75.97 85.79 L 76.43 84.60 L 76.90 83.37 L 77.36 82.10 L 77.82 80.79 L 78.29 79.45 L 78.75 78.08 L 79.22 76.68 L 79.68 75.26 L 80.14 73.83 L 80.61 72.38 L 81.07 70.92 L 81.54 69.46 L 82.00 68.00 L 82.46 66.55 L 82.93 65.10 L 83.39 63.67 L 83.86 62.26 L 84.32 60.87 L 84.78 59.51 L 85.25 58.19 L 85.71 56.90 L 86.18 55.64 L 86.64 54.44 L 87.10 53.28 L 87.57 52.17 L 88.03 51.11 L 88.50 50.11 L 88.96 49.17 L 89.42 48.30 L 89.89 47.48 L 90.35 46.74 L 90.82 46.06 L 91.28 45.45 L 91.74 44.92 L 92.21 44.45 L 92.67 44.06 L 93.14 43.73 L 93.60 43.48 L 94.06 43.31 L 94.53 43.20 L 94.99 43.17 L 95.46 43.20 L 95.92 43.30 L 96.38 43.47 L 96.85 43.70 L 97.31 44.00 L 97.78 44.36 L 98.24 44.77 L 98.70 45.24 L 99.17 45.77 L 99.63 46.34 L 100.10 46.96 L 100.56 47.63 L 101.02 48.34 L 101.49 49.08 L 101.95 49.86 L 102.42 50.68 L 102.88 51.52 L 103.34 52.38 L 103.81 53.27 L 104.27 54.18 L 104.74 55.11 L 105.20 56.05 L 105.66 57.00 L 106.13 57.96 L 106.59 58.93 L 107.06 59.90 L 107.52 60.87 L 107.98 61.84 L 108.45 62.81 L 108.91 63.77 L 109.38 64.73 L 109.84 65.67 L 110.30 66.61 L 110.77 67.54 L 111.23 68.46 L 111.70 69.36 L 112.16 70.25 L 112.62 71.12 L 113.09 71.98 L 113.55 72.82 L 114.02 73.65 L 114.48 74.46 L 114.94 75.25 L 115.41 76.02 L 115.87 76.77 L 116.34 77.51 L 116.80 78.22 L 117.26 78.92 L 117.73 79.60 L 118.19 80.25 L 118.66 80.89 L 119.12 81.50 L 119.58 82.10 L 120.05 82.66 L 120.51 83.21 L 120.98 83.73 L 121.44 84.23 L 121.90 84.70 L 122.37 85.15 L 122.83 85.56 L 123.30 85.95 L 123.76 86.30 L 124.22 86.63 L 124.69 86.92 L 125.15 87.17 L 125.62 87.38 L 126.08 87.56 L 126.54 87.70 L 127.01 87.79 L 127.47 87.84 L 127.94 87.84 L 128.40 87.79 L 128.86 87.70 L 129.33 87.55 L 129.79 87.35 L 130.26 87.09 L 130.72 86.78 L 131.18 86.41 L 131.65 85.98 L 132.11 85.49 L 132.58 84.93 L 133.04 84.32 L 133.50 83.64 L 133.97 82.90 L 134.43 82.10 L 134.90 81.24 L 135.36 80.31 L 135.82 79.33 L 136.29 78.28 L 136.75 77.18 L 137.22 76.02 L 137.68 74.80 L 138.14 73.53 L 138.61 72.22 L 139.07 70.85 L 139.54 69.45 L 140.00 68.00 L 140.46 66.52 L 140.93 65.00 L 141.39 63.46 L 141.86 61.90 L 142.32 60.32 L 142.78 58.73 L 143.25 57.13 L 143.71 55.53 L 144.18 53.93 L 144.64 52.34 L 145.10 50.77 L 145.57 49.22 L 146.03 47.70 L 146.50 46.21 L 146.96 44.76 L 147.42 43.35 L 147.89 42.00 L 148.35 40.70 L 148.82 39.46 L 149.28 38.30 L 149.74 37.20 L 150.21 36.18 L 150.67 35.24 L 151.14 34.39 L 151.60 33.63 L 152.06 32.96 L 152.53 32.39 L 152.99 31.92 L 153.46 31.55 L 153.92 31.28 L 154.38 31.12 L 154.85 31.06 L 155.31 31.11 L 155.78 31.27 L 156.24 31.54 L 156.70 31.91 L 157.17 32.39 L 157.63 32.97 L 158.10 33.65 L 158.56 34.43 L 159.02 35.30 L 159.49 36.27 L 159.95 37.33 L 160.42 38.47 L 160.88 39.69 L 161.34 40.98 L 161.81 42.35 L 162.27 43.78 L 162.74 45.27 L 163.20 46.81 L 163.66 48.40 L 164.13 50.03 L 164.59 51.69 L 165.06 53.38 L 165.52 55.10 L 165.98 56.82 L 166.45 58.56 L 166.91 60.30 L 167.38 62.04 L 167.84 63.77 L 168.30 65.48 L 168.77 67.17 L 169.23 68.83 L 169.70 70.45 L 170.16 72.04 L 170.62 73.59 L 171.09 75.09 L 171.55 76.53 L 172.02 77.92 L 172.48 79.25 L 172.94 80.52 L 173.41 81.72 L 173.87 82.85 L 174.34 83.91 L 174.80 84.89 L 175.26 85.80 L 175.73 86.64 L 176.19 87.40 L 176.66 88.08 L 177.12 88.68 L 177.58 89.21 L 178.05 89.66 L 178.51 90.03 L 178.98 90.33 L 179.44 90.56 L 179.90 90.72 L 180.37 90.80 L 180.83 90.82 L 181.30 90.77 L 181.76 90.66 L 182.22 90.49 L 182.69 90.27 L 183.15 89.99 L 183.62 89.66 L 184.08 89.27 L 184.54 88.85 L 185.01 88.38 L 185.47 87.87 L 185.94 87.33 L 186.40 86.75 L 186.86 86.14 L 187.33 85.50 L 187.79 84.84 L 188.26 84.16 L 188.72 83.46 L 189.18 82.74 L 189.65 82.00 L 190.11 81.25 L 190.58 80.49 L 191.04 79.73 L 191.50 78.95 L 191.97 78.17 L 192.43 77.39 L 192.90 76.60 L 193.36 75.81 L 193.82 75.02 L 194.29 74.23 L 194.75 73.44 L 195.22 72.65 L 195.68 71.87 L 196.14 71.09 L 196.61 70.31 L 197.07 69.53 L 197.54 68.77 L 198.00 68.00 L 198.46 67.24 L 198.93 66.49 L 199.39 65.74 L 199.86 64.99 L 200.32 64.26 L 200.78 63.53 L 201.25 62.80 L 201.71 62.09 L 202.18 61.38 L 202.64 60.69 L 203.10 60.00 L 203.57 59.32 L 204.03 58.66 L 204.50 58.00 L 204.96 57.37 L 205.42 56.74 L 205.89 56.13 L 206.35 55.55 L 206.82 54.98 L 207.28 54.43 L 207.74 53.90 L 208.21 53.40 L 208.67 52.92 L 209.14 52.47 L 209.60 52.05 L 210.06 51.66 L 210.53 51.31 L 210.99 50.99 L 211.46 50.71 L 211.92 50.46 L 212.38 50.26 L 212.85 50.10 L 213.31 49.98 L 213.78 49.91 L 214.24 49.88 L 214.70 49.90 L 215.17 49.98 L 215.63 50.10 L 216.10 50.27 L 216.56 50.50 L 217.02 50.78 L 217.49 51.11 L 217.95 51.49 L 218.42 51.92 L 218.88 52.41 L 219.34 52.95 L 219.81 53.55 L 220.27 54.19 L 220.74 54.88 L 221.20 55.62 L 221.66 56.40 L 222.13 57.23 L 222.59 58.10 L 223.06 59.01 L 223.52 59.96 L 223.98 60.95 L 224.45 61.97 L 224.91 63.01 L 225.38 64.08 L 225.84 65.18 L 226.30 66.30 L 226.77 67.43 L 227.23 68.57 L 227.70 69.73 L 228.16 70.89 L 228.62 72.05 L 229.09 73.21 L 229.55 74.37 L 230.02 75.51 L 230.48 76.64 L 230.94 77.76 L 231.41 78.86 L 231.87 79.93 L 232.34 80.97 L 232.80 81.99 L 233.26 82.97 L 233.73 83.92 L 234.19 84.82 L 234.66 85.69 L 235.12 86.50 L 235.58 87.28 L 236.05 88.00 L 236.51 88.67 L 236.98 89.29 L 237.44 89.85 L 237.90 90.35 L 238.37 90.80 L 238.83 91.19 L 239.30 91.52 L 239.76 91.79 L 240.22 91.99 L 240.69 92.14 L 241.15 92.22 L 241.62 92.24 L 242.08 92.20 L 242.54 92.10 L 243.01 91.94 L 243.47 91.72 L 243.94 91.44 L 244.40 91.10 L 244.86 90.70 L 245.33 90.25 L 245.79 89.74 L 246.26 89.18 L 246.72 88.56 L 247.18 87.90 L 247.65 87.18 L 248.11 86.42 L 248.58 85.61 L 249.04 84.76 L 249.50 83.87 L 249.97 82.93 L 250.43 81.96 L 250.90 80.95 L 251.36 79.90 L 251.82 78.82 L 252.29 77.72 L 252.75 76.58 L 253.22 75.42 L 253.68 74.23 L 254.14 73.02 L 254.61 71.79 L 255.07 70.54 L 255.54 69.28 L 256.00 68.00" fill="none" stroke="#1A7A44" stroke-width="2.0" stroke-linecap="round" stroke-linejoin="round"/>
<text x="140.0" y="155" text-anchor="middle" font-size="11" font-weight="600" letter-spacing="0.1em" fill="#5C6578">FLICKER</text>
</svg>
