<?xml version="1.0" encoding="UTF-8"?>
<svg xmlns="http://www.w3.org/2000/svg" viewBox="0 0 280 180" width="280" height="180" font-family="'Inter', system-ui, sans-serif">
<path d="M 24.00 68.00 L 24.58 67.99 L 25.16 67.97 L 25.74 67.92 L 26.32 67.86 L 26.90 67.78 L 27.48 67.69 L 28.06 67.58 L 28.64 67.45 L 29.22 67.31 L 29.80 67.15 L 30.38 66.97 L 30.96 66.78 L 31.54 66.57 L 32.12 66.36 L 32.70 66.12 L 33.28 65.87 L 33.86 65.61 L 34.44 65.34 L 35.02 65.06 L 35.60 64.76 L 36.18 64.46 L 36.76 64.14 L 37.34 63.82 L 37.92 63.48 L 38.50 63.14 L 39.08 62.79 L 39.66 62.44 L 40.24 62.08 L 40.82 61.72 L 41.40 61.35 L 41.98 60.98 L 42.56 60.60 L 43.14 60.23 L 43.72 59.85 L 44.30 59.48 L 44.88 59.10 L 45.46 58.73 L 46.04 58.37 L 46.62 58.00 L 47.20 57.64 L 47.78 57.29 L 48.36 56.94 L 48.94 56.60 L 49.52 56.27 L 50.10 55.95 L 50.68 55.63 L 51.26 55.33 L 51.84 55.04 L 52.42 54.77 L 53.00 54.50 L 53.58 54.25 L 54.16 54.02 L 54.74 53.80 L 55.32 53.59 L 55.90 53.41 L 56.48 53.24 L 57.06 53.09 L 57.64 52.96 L 58.22 52.85 L 58.80 52.76 L 59.38 52.69 L 59.96 52.64 L 60.54 52.61 L 61.12 52.60 L 61.70 52.62 L 62.28 52.66 L 62.86 52.73 L 63.44 52.81 L 64.02 52.92 L 64.60 53.06 L 65.18 53.22 L 65.76 53.41 L 66.34 53.61 L 66.92 53.85 L 67.50 54.11 L 68.08 54.39 L 68.66 54.70 L 69.24 55.03 L 69.82 55.39 L 70.40 55.77 L 70.98 56.18 L 71.56 56.61 L 72.14 57.07 L 72.72 57.55 L 73.30 58.05 L 73.88 58.57 L 74.46 59.12 L 75.04 59.69 L 75.62 60.28 L 76.20 60.89 L 76.78 61.52 L 77.36 62.17 L 77.94 62.84 L 78.52 63.53 L 79.10 64.23 L 79.68 64.96 L 80.26 65.70 L 80.84 66.45 L 81.42 67.22 L 82.00 68.00 L 82.58 68.79 L 83.16 69.60 L 83.74 70.42 L 84.32 71.25 L 84.90 72.08 L 85.48 72.92 L 86.06 73.78 L 86.64 74.63 L 87.22 75.49 L 87.80 76.36 L 88.38 77.22 L 88.96 78.09 L 89.54 78.96 L 90.12 79.83 L 90.70 80.69 L 91.28 81.55 L 91.86 82.41 L 92.44 83.26 L 93.02 84.11 L 93.60 84.95 L 94.18 85.77 L 94.76 86.59 L 95.34 87.40 L 95.92 88.19 L 96.50 88.98 L 97.08 89.74 L 97.66 90.49 L 98.24 91.23 L 98.82 91.94 L 99.40 92.64 L 99.98 93.32 L 100.56 93.97 L 101.14 94.60 L 101.72 95.22 L 102.30 95.80 L 102.88 96.36 L 103.46 96.90 L 104.04 97.41 L 104.62 97.89 L 105.20 98.35 L 105.78 98.77 L 106.36 99.16 L 106.94 99.53 L 107.52 99.86 L 108.10 100.16 L 108.68 100.43 L 109.26 100.67 L 109.84 100.87 L 110.42 101.04 L 111.00 101.18 L 111.58 101.28 L 112.16 101.34 L 112.74 101.37 L 113.32 101.37 L 113.90 101.33 L 114.48 101.25 L 115.06 101.14 L 115.64 100.99 L 116.22 100.80 L 116.80 100.58 L 117.38 100.33 L 117.96 100.03 L 118.54 99.70 L 119.12 99.34 L 119.70 98.94 L 120.28 98.51 L 120.86 98.04 L 121.44 97.54 L 122.02 97.00 L 122.60 96.43 L 123.18 95.83 L 123.76 95.20 L 124.34 94.53 L 124.92 93.84 L 125.50 93.11 L 126.08 92.36 L 126.66 91.57 L 127.24 90.76 L 127.82 89.93 L 128.40 89.06 L 128.98 88.17 L 129.56 87.26 L 130.14 86.33 L 130.72 85.37 L 131.30 84.39 L 131.88 83.39 L 132.46 82.37 L 133.04 81.34 L 133.62 80.29 L 134.20 79.22 L 134.78 78.14 L 135.36 77.05 L 135.94 75.95 L 136.52 74.83 L 137.10 73.71 L 137.68 72.58 L 138.26 71.44 L 138.84 70.30 L 139.42 69.15 L 140.00 68.00 L 140.58 66.85 L 141.16 65.70 L 141.74 64.55 L 142.32 63.41 L 142.90 62.27 L 143.48 61.13 L 144.06 60.00 L 144.64 58.88 L 145.22 57.77 L 145.80 56.67 L 146.38 55.58 L 146.96 54.51 L 147.54 53.45 L 148.12 52.40 L 148.70 51.37 L 149.28 50.37 L 149.86 49.37 L 150.44 48.41 L 151.02 47.46 L 151.60 46.53 L 152.18 45.63 L 152.76 44.75 L 153.34 43.90 L 153.92 43.07 L 154.50 42.28 L 155.08 41.51 L 155.66 40.77 L 156.24 40.06 L 156.82 39.38 L 157.40 38.73 L 157.98 38.12 L 158.56 37.53 L 159.14 36.98 L 159.72 36.47 L 160.30 35.99 L 160.88 35.54 L 161.46 35.13 L 162.04 34.76 L 162.62 34.42 L 163.20 34.12 L 163.78 33.85 L 164.36 33.62 L 164.94 33.43 L 165.52 33.28 L 166.10 33.16 L 166.68 33.08 L 167.26 33.04 L 167.84 33.03 L 168.42 33.06 L 169.00 33.13 L 169.58 33.23 L 170.16 33.37 L 170.74 33.55 L 171.32 33.76 L 171.90 34.00 L 172.48 34.28 L 173.06 34.60 L 173.64 34.95 L 174.22 35.33 L 174.80 35.74 L 175.38 36.19 L 175.96 36.66 L 176.54 37.17 L 177.12 37.70 L 177.70 38.27 L 178.28 38.86 L 178.86 39.48 L 179.44 40.12 L 180.02 40.79 L 180.60 41.49 L 181.18 42.20 L 181.76 42.94 L 182.34 43.70 L 182.92 44.48 L 183.50 45.28 L 184.08 46.10 L 184.66 46.93 L 185.24 47.78 L 185.82 48.64 L 186.40 49.52 L 186.98 50.41 L 187.56 51.31 L 188.14 52.22 L 188.72 53.13 L 189.30 54.06 L 189.88 54.99 L 190.46 55.93 L 191.04 56.86 L 191.62 57.81 L 192.20 58.75 L 192.78 59.69 L 193.36 60.64 L 193.94 61.58 L 194.52 62.51 L 195.10 63.45 L 195.68 64.37 L 196.26 65.29 L 196.84 66.20 L 197.42 67.11 L 198.00 68.00 L 198.58 68.88 L 199.16 69.75 L 199.74 70.61 L 200.32 71.45 L 200.90 72.28 L 201.48 73.09 L 202.06 73.89 L 202.64 74.66 L 203.22 75.42 L 203.80 76.16 L 204.38 76.88 L 204.96 77.58 L 205.54 78.26 L 206.12 78.91 L 206.70 79.55 L 207.28 80.16 L 207.86 80.74 L 208.44 81.30 L 209.02 81.84 L 209.60 82.35 L 210.18 82.84 L 210.76 83.30 L 211.34 83.74 L 211.92 84.14 L 212.50 84.53 L 213.08 84.88 L 213.66 85.21 L 214.24 85.51 L 214.82 85.79 L 215.40 86.03 L 215.98 86.25 L 216.56 86.45 L 217.14 86.61 L 217.72 86.76 L 218.30 86.87 L 218.88 86.96 L 219.46 87.02 L 220.04 87.06 L 220.62 87.07 L 221.20 87.05 L 221.78 87.02 L 222.36 86.95 L 222.94 86.87 L 223.52 86.76 L 224.10 86.63 L 224.68 86.48 L 225.26 86.30 L 225.84 86.11 L 226.42 85.90 L 227.00 85.66 L 227.58 85.41 L 228.16 85.14 L 228.74 84.86 L 229.32 84.56 L 229.90 84.24 L 230.48 83.91 L 231.06 83.56 L 231.64 83.20 L 232.22 82.83 L 232.80 82.45 L 233.38 82.06 L 233.96 81.66 L 234.54 81.25 L 235.12 80.83 L 235.70 80.41 L 236.28 79.98 L 236.86 79.54 L 237.44 79.11 L 238.02 78.67 L 238.60 78.22 L 239.18 77.78 L 239.76 77.34 L 240.34 76.89 L 240.92 76.45 L 241.50 76.01 L 242.08 75.58 L 242.66 75.14 L 243.24 74.72 L 243.82 74.30 L 244.40 73.88 L 244.98 73.48 L 245.56 73.08 L 246.14 72.69 L 246.72 72.31 L 247.30 71.94 L 247.88 71.58 L 248.46 71.23 L 249.04 70.89 L 249.62 70.57 L 250.20 70.26 L 250.78 69.97 L 251.36 69.69 L 251.94 69.42 L 252.52 69.17 L 253.10 68.93 L 253.68 68.71 L 254.26 68.51 L 254.84 68.32 L 255.42 68.15 L 256.00 68.00" fill="none" stroke="#1A7A44" stroke-width="2.0" stroke-linecap="round" stroke-linejoin="round"/>
<text x="140.0" y="155" text-anchor="middle" font-size="11" font-weight="600" letter-spacing="0.1em" fill="#5C6578">OSCILLATIONS</text>
</svg>