<?xml version="1.0" encoding="UTF-8"?>
<svg xmlns="http://www.w3.org/2000/svg" viewBox="0 0 280 180" width="280" height="180" font-family="'Inter', system-ui, sans-serif">
<path d="M 24.00 102.64 L 24.58 103.25 L 25.16 103.83 L 25.74 104.37 L 26.32 104.87 L 26.90 105.34 L 27.48 105.78 L 28.06 106.17 L 28.64 106.53 L 29.22 106.85 L 29.80 107.13 L 30.38 107.37 L 30.96 107.57 L 31.54 107.73 L 32.12 107.86 L 32.70 107.95 L 33.28 107.99 L 33.86 108.00 L 34.44 107.96 L 35.02 107.89 L 35.60 107.78 L 36.18 107.63 L 36.76 107.44 L 37.34 107.21 L 37.92 106.94 L 38.50 106.64 L 39.08 106.29 L 39.66 105.91 L 40.24 105.49 L 40.82 105.03 L 41.40 104.54 L 41.98 104.01 L 42.56 103.45 L 43.14 102.85 L 43.72 102.21 L 44.30 101.55 L 44.88 100.85 L 45.46 100.11 L 46.04 99.35 L 46.62 98.55 L 47.20 97.73 L 47.78 96.87 L 48.36 95.99 L 48.94 95.08 L 49.52 94.14 L 50.10 93.17 L 50.68 92.18 L 51.26 91.17 L 51.84 90.14 L 52.42 89.08 L 53.00 88.00 L 53.58 86.90 L 54.16 85.79 L 54.74 84.65 L 55.32 83.50 L 55.90 82.33 L 56.48 81.15 L 57.06 79.96 L 57.64 78.76 L 58.22 77.54 L 58.80 76.32 L 59.38 75.08 L 59.96 73.84 L 60.54 72.60 L 61.12 71.35 L 61.70 70.09 L 62.28 68.84 L 62.86 67.58 L 63.44 66.32 L 64.02 65.07 L 64.60 63.82 L 65.18 62.57 L 65.76 61.33 L 66.34 60.09 L 66.92 58.87 L 67.50 57.65 L 68.08 56.44 L 68.66 55.24 L 69.24 54.06 L 69.82 52.89 L 70.40 51.73 L 70.98 50.59 L 71.56 49.47 L 72.14 48.36 L 72.72 47.28 L 73.30 46.21 L 73.88 45.17 L 74.46 44.15 L 75.04 43.15 L 75.62 42.18 L 76.20 41.23 L 76.78 40.31 L 77.36 39.42 L 77.94 38.56 L 78.52 37.72 L 79.10 36.91 L 79.68 36.14 L 80.26 35.39 L 80.84 34.68 L 81.42 34.00 L 82.00 33.36 L 82.58 32.75 L 83.16 32.17 L 83.74 31.63 L 84.32 31.13 L 84.90 30.66 L 85.48 30.22 L 86.06 29.83 L 86.64 29.47 L 87.22 29.15 L 87.80 28.87 L 88.38 28.63 L 88.96 28.43 L 89.54 28.27 L 90.12 28.14 L 90.70 28.05 L 91.28 28.01 L 91.86 28.00 L 92.44 28.04 L 93.02 28.11 L 93.60 28.22 L 94.18 28.37 L 94.76 28.56 L 95.34 28.79 L 95.92 29.06 L 96.50 29.36 L 97.08 29.71 L 97.66 30.09 L 98.24 30.51 L 98.82 30.97 L 99.40 31.46 L 99.98 31.99 L 100.56 32.55 L 101.14 33.15 L 101.72 33.79 L 102.30 34.45 L 102.88 35.15 L 103.46 35.89 L 104.04 36.65 L 104.62 37.45 L 105.20 38.27 L 105.78 39.13 L 106.36 40.01 L 106.94 40.92 L 107.52 41.86 L 108.10 42.83 L 108.68 43.82 L 109.26 44.83 L 109.84 45.86 L 110.42 46.92 L 111.00 48.00 L 111.58 49.10 L 112.16 50.21 L 112.74 51.35 L 113.32 52.50 L 113.90 53.67 L 114.48 54.85 L 115.06 56.04 L 115.64 57.24 L 116.22 58.46 L 116.80 59.68 L 117.38 60.92 L 117.96 62.16 L 118.54 63.40 L 119.12 64.65 L 119.70 65.91 L 120.28 67.16 L 120.86 68.42 L 121.44 69.68 L 122.02 70.93 L 122.60 72.18 L 123.18 73.43 L 123.76 74.67 L 124.34 75.91 L 124.92 77.13 L 125.50 78.35 L 126.08 79.56 L 126.66 80.76 L 127.24 81.94 L 127.82 83.11 L 128.40 84.27 L 128.98 85.41 L 129.56 86.53 L 130.14 87.64 L 130.72 88.72 L 131.30 89.79 L 131.88 90.83 L 132.46 91.85 L 133.04 92.85 L 133.62 93.82 L 134.20 94.77 L 134.78 95.69 L 135.36 96.58 L 135.94 97.44 L 136.52 98.28 L 137.10 99.09 L 137.68 99.86 L 138.26 100.61 L 138.84 101.32 L 139.42 102.00 L 140.00 102.64 L 140.58 103.25 L 141.16 103.83 L 141.74 104.37 L 142.32 104.87 L 142.90 105.34 L 143.48 105.78 L 144.06 106.17 L 144.64 106.53 L 145.22 106.85 L 145.80 107.13 L 146.38 107.37 L 146.96 107.57 L 147.54 107.73 L 148.12 107.86 L 148.70 107.95 L 149.28 107.99 L 149.86 108.00 L 150.44 107.96 L 151.02 107.89 L 151.60 107.78 L 152.18 107.63 L 152.76 107.44 L 153.34 107.21 L 153.92 106.94 L 154.50 106.64 L 155.08 106.29 L 155.66 105.91 L 156.24 105.49 L 156.82 105.03 L 157.40 104.54 L 157.98 104.01 L 158.56 103.45 L 159.14 102.85 L 159.72 102.21 L 160.30 101.55 L 160.88 100.85 L 161.46 100.11 L 162.04 99.35 L 162.62 98.55 L 163.20 97.73 L 163.78 96.87 L 164.36 95.99 L 164.94 95.08 L 165.52 94.14 L 166.10 93.17 L 166.68 92.18 L 167.26 91.17 L 167.84 90.14 L 168.42 89.08 L 169.00 88.00 L 169.58 86.90 L 170.16 85.79 L 170.74 84.65 L 171.32 83.50 L 171.90 82.33 L 172.48 81.15 L 173.06 79.96 L 173.64 78.76 L 174.22 77.54 L 174.80 76.32 L 175.38 75.08 L 175.96 73.84 L 176.54 72.60 L 177.12 71.35 L 177.70 70.09 L 178.28 68.84 L 178.86 67.58 L 179.44 66.32 L 180.02 65.07 L 180.60 63.82 L 181.18 62.57 L 181.76 61.33 L 182.34 60.09 L 182.92 58.87 L 183.50 57.65 L 184.08 56.44 L 184.66 55.24 L 185.24 54.06 L 185.82 52.89 L 186.40 51.73 L 186.98 50.59 L 187.56 49.47 L 188.14 48.36 L 188.72 47.28 L 189.30 46.21 L 189.88 45.17 L 190.46 44.15 L 191.04 43.15 L 191.62 42.18 L 192.20 41.23 L 192.78 40.31 L 193.36 39.42 L 193.94 38.56 L 194.52 37.72 L 195.10 36.91 L 195.68 36.14 L 196.26 35.39 L 196.84 34.68 L 197.42 34.00 L 198.00 33.36 L 198.58 32.75 L 199.16 32.17 L 199.74 31.63 L 200.32 31.13 L 200.90 30.66 L 201.48 30.22 L 202.06 29.83 L 202.64 29.47 L 203.22 29.15 L 203.80 28.87 L 204.38 28.63 L 204.96 28.43 L 205.54 28.27 L 206.12 28.14 L 206.70 28.05 L 207.28 28.01 L 207.86 28.00 L 208.44 28.04 L 209.02 28.11 L 209.60 28.22 L 210.18 28.37 L 210.76 28.56 L 211.34 28.79 L 211.92 29.06 L 212.50 29.36 L 213.08 29.71 L 213.66 30.09 L 214.24 30.51 L 214.82 30.97 L 215.40 31.46 L 215.98 31.99 L 216.56 32.55 L 217.14 33.15 L 217.72 33.79 L 218.30 34.45 L 218.88 35.15 L 219.46 35.89 L 220.04 36.65 L 220.62 37.45 L 221.20 38.27 L 221.78 39.13 L 222.36 40.01 L 222.94 40.92 L 223.52 41.86 L 224.10 42.83 L 224.68 43.82 L 225.26 44.83 L 225.84 45.86 L 226.42 46.92 L 227.00 48.00 L 227.58 49.10 L 228.16 50.21 L 228.74 51.35 L 229.32 52.50 L 229.90 53.67 L 230.48 54.85 L 231.06 56.04 L 231.64 57.24 L 232.22 58.46 L 232.80 59.68 L 233.38 60.92 L 233.96 62.16 L 234.54 63.40 L 235.12 64.65 L 235.70 65.91 L 236.28 67.16 L 236.86 68.42 L 237.44 69.68 L 238.02 70.93 L 238.60 72.18 L 239.18 73.43 L 239.76 74.67 L 240.34 75.91 L 240.92 77.13 L 241.50 78.35 L 242.08 79.56 L 242.66 80.76 L 243.24 81.94 L 243.82 83.11 L 244.40 84.27 L 244.98 85.41 L 245.56 86.53 L 246.14 87.64 L 246.72 88.72 L 247.30 89.79 L 247.88 90.83 L 248.46 91.85 L 249.04 92.85 L 249.62 93.82 L 250.20 94.77 L 250.78 95.69 L 251.36 96.58 L 251.94 97.44 L 252.52 98.28 L 253.10 99.09 L 253.68 99.86 L 254.26 100.61 L 254.84 101.32 L 255.42 102.00 L 256.00 102.64" fill="none" stroke="#8790A0" stroke-width="1.5" stroke-linecap="round" stroke-linejoin="round"/>
<path d="M 24.00 45.48 L 24.58 45.90 L 25.16 46.34 L 25.74 46.81 L 26.32 47.29 L 26.90 47.79 L 27.48 48.32 L 28.06 48.86 L 28.64 49.42 L 29.22 50.00 L 29.80 50.60 L 30.38 51.22 L 30.96 51.85 L 31.54 52.50 L 32.12 53.16 L 32.70 53.84 L 33.28 54.53 L 33.86 55.24 L 34.44 55.95 L 35.02 56.68 L 35.60 57.42 L 36.18 58.18 L 36.76 58.94 L 37.34 59.71 L 37.92 60.49 L 38.50 61.27 L 39.08 62.06 L 39.66 62.86 L 40.24 63.66 L 40.82 64.47 L 41.40 65.28 L 41.98 66.10 L 42.56 66.91 L 43.14 67.73 L 43.72 68.54 L 44.30 69.36 L 44.88 70.18 L 45.46 70.99 L 46.04 71.80 L 46.62 72.60 L 47.20 73.41 L 47.78 74.20 L 48.36 74.99 L 48.94 75.78 L 49.52 76.55 L 50.10 77.32 L 50.68 78.08 L 51.26 78.82 L 51.84 79.56 L 52.42 80.29 L 53.00 81.00 L 53.58 81.70 L 54.16 82.39 L 54.74 83.06 L 55.32 83.72 L 55.90 84.36 L 56.48 84.99 L 57.06 85.60 L 57.64 86.19 L 58.22 86.77 L 58.80 87.32 L 59.38 87.86 L 59.96 88.38 L 60.54 88.87 L 61.12 89.35 L 61.70 89.81 L 62.28 90.24 L 62.86 90.65 L 63.44 91.04 L 64.02 91.41 L 64.60 91.75 L 65.18 92.07 L 65.76 92.37 L 66.34 92.64 L 66.92 92.89 L 67.50 93.11 L 68.08 93.31 L 68.66 93.49 L 69.24 93.64 L 69.82 93.76 L 70.40 93.86 L 70.98 93.93 L 71.56 93.98 L 72.14 94.00 L 72.72 93.99 L 73.30 93.96 L 73.88 93.91 L 74.46 93.83 L 75.04 93.72 L 75.62 93.59 L 76.20 93.43 L 76.78 93.25 L 77.36 93.04 L 77.94 92.81 L 78.52 92.55 L 79.10 92.27 L 79.68 91.97 L 80.26 91.64 L 80.84 91.29 L 81.42 90.91 L 82.00 90.52 L 82.58 90.10 L 83.16 89.66 L 83.74 89.19 L 84.32 88.71 L 84.90 88.21 L 85.48 87.68 L 86.06 87.14 L 86.64 86.58 L 87.22 86.00 L 87.80 85.40 L 88.38 84.78 L 88.96 84.15 L 89.54 83.50 L 90.12 82.84 L 90.70 82.16 L 91.28 81.47 L 91.86 80.76 L 92.44 80.05 L 93.02 79.32 L 93.60 78.58 L 94.18 77.82 L 94.76 77.06 L 95.34 76.29 L 95.92 75.51 L 96.50 74.73 L 97.08 73.94 L 97.66 73.14 L 98.24 72.34 L 98.82 71.53 L 99.40 70.72 L 99.98 69.90 L 100.56 69.09 L 101.14 68.27 L 101.72 67.46 L 102.30 66.64 L 102.88 65.82 L 103.46 65.01 L 104.04 64.20 L 104.62 63.40 L 105.20 62.59 L 105.78 61.80 L 106.36 61.01 L 106.94 60.22 L 107.52 59.45 L 108.10 58.68 L 108.68 57.92 L 109.26 57.18 L 109.84 56.44 L 110.42 55.71 L 111.00 55.00 L 111.58 54.30 L 112.16 53.61 L 112.74 52.94 L 113.32 52.28 L 113.90 51.64 L 114.48 51.01 L 115.06 50.40 L 115.64 49.81 L 116.22 49.23 L 116.80 48.68 L 117.38 48.14 L 117.96 47.62 L 118.54 47.13 L 119.12 46.65 L 119.70 46.19 L 120.28 45.76 L 120.86 45.35 L 121.44 44.96 L 122.02 44.59 L 122.60 44.25 L 123.18 43.93 L 123.76 43.63 L 124.34 43.36 L 124.92 43.11 L 125.50 42.89 L 126.08 42.69 L 126.66 42.51 L 127.24 42.36 L 127.82 42.24 L 128.40 42.14 L 128.98 42.07 L 129.56 42.02 L 130.14 42.00 L 130.72 42.01 L 131.30 42.04 L 131.88 42.09 L 132.46 42.17 L 133.04 42.28 L 133.62 42.41 L 134.20 42.57 L 134.78 42.75 L 135.36 42.96 L 135.94 43.19 L 136.52 43.45 L 137.10 43.73 L 137.68 44.03 L 138.26 44.36 L 138.84 44.71 L 139.42 45.09 L 140.00 45.48 L 140.58 45.90 L 141.16 46.34 L 141.74 46.81 L 142.32 47.29 L 142.90 47.79 L 143.48 48.32 L 144.06 48.86 L 144.64 49.42 L 145.22 50.00 L 145.80 50.60 L 146.38 51.22 L 146.96 51.85 L 147.54 52.50 L 148.12 53.16 L 148.70 53.84 L 149.28 54.53 L 149.86 55.24 L 150.44 55.95 L 151.02 56.68 L 151.60 57.42 L 152.18 58.18 L 152.76 58.94 L 153.34 59.71 L 153.92 60.49 L 154.50 61.27 L 155.08 62.06 L 155.66 62.86 L 156.24 63.66 L 156.82 64.47 L 157.40 65.28 L 157.98 66.10 L 158.56 66.91 L 159.14 67.73 L 159.72 68.54 L 160.30 69.36 L 160.88 70.18 L 161.46 70.99 L 162.04 71.80 L 162.62 72.60 L 163.20 73.41 L 163.78 74.20 L 164.36 74.99 L 164.94 75.78 L 165.52 76.55 L 166.10 77.32 L 166.68 78.08 L 167.26 78.82 L 167.84 79.56 L 168.42 80.29 L 169.00 81.00 L 169.58 81.70 L 170.16 82.39 L 170.74 83.06 L 171.32 83.72 L 171.90 84.36 L 172.48 84.99 L 173.06 85.60 L 173.64 86.19 L 174.22 86.77 L 174.80 87.32 L 175.38 87.86 L 175.96 88.38 L 176.54 88.87 L 177.12 89.35 L 177.70 89.81 L 178.28 90.24 L 178.86 90.65 L 179.44 91.04 L 180.02 91.41 L 180.60 91.75 L 181.18 92.07 L 181.76 92.37 L 182.34 92.64 L 182.92 92.89 L 183.50 93.11 L 184.08 93.31 L 184.66 93.49 L 185.24 93.64 L 185.82 93.76 L 186.40 93.86 L 186.98 93.93 L 187.56 93.98 L 188.14 94.00 L 188.72 93.99 L 189.30 93.96 L 189.88 93.91 L 190.46 93.83 L 191.04 93.72 L 191.62 93.59 L 192.20 93.43 L 192.78 93.25 L 193.36 93.04 L 193.94 92.81 L 194.52 92.55 L 195.10 92.27 L 195.68 91.97 L 196.26 91.64 L 196.84 91.29 L 197.42 90.91 L 198.00 90.52 L 198.58 90.10 L 199.16 89.66 L 199.74 89.19 L 200.32 88.71 L 200.90 88.21 L 201.48 87.68 L 202.06 87.14 L 202.64 86.58 L 203.22 86.00 L 203.80 85.40 L 204.38 84.78 L 204.96 84.15 L 205.54 83.50 L 206.12 82.84 L 206.70 82.16 L 207.28 81.47 L 207.86 80.76 L 208.44 80.05 L 209.02 79.32 L 209.60 78.58 L 210.18 77.82 L 210.76 77.06 L 211.34 76.29 L 211.92 75.51 L 212.50 74.73 L 213.08 73.94 L 213.66 73.14 L 214.24 72.34 L 214.82 71.53 L 215.40 70.72 L 215.98 69.90 L 216.56 69.09 L 217.14 68.27 L 217.72 67.46 L 218.30 66.64 L 218.88 65.82 L 219.46 65.01 L 220.04 64.20 L 220.62 63.40 L 221.20 62.59 L 221.78 61.80 L 222.36 61.01 L 222.94 60.22 L 223.52 59.45 L 224.10 58.68 L 224.68 57.92 L 225.26 57.18 L 225.84 56.44 L 226.42 55.71 L 227.00 55.00 L 227.58 54.30 L 228.16 53.61 L 228.74 52.94 L 229.32 52.28 L 229.90 51.64 L 230.48 51.01 L 231.06 50.40 L 231.64 49.81 L 232.22 49.23 L 232.80 48.68 L 233.38 48.14 L 233.96 47.62 L 234.54 47.13 L 235.12 46.65 L 235.70 46.19 L 236.28 45.76 L 236.86 45.35 L 237.44 44.96 L 238.02 44.59 L 238.60 44.25 L 239.18 43.93 L 239.76 43.63 L 240.34 43.36 L 240.92 43.11 L 241.50 42.89 L 242.08 42.69 L 242.66 42.51 L 243.24 42.36 L 243.82 42.24 L 244.40 42.14 L 244.98 42.07 L 245.56 42.02 L 246.14 42.00 L 246.72 42.01 L 247.30 42.04 L 247.88 42.09 L 248.46 42.17 L 249.04 42.28 L 249.62 42.41 L 250.20 42.57 L 250.78 42.75 L 251.36 42.96 L 251.94 43.19 L 252.52 43.45 L 253.10 43.73 L 253.68 44.03 L 254.26 44.36 L 254.84 44.71 L 255.42 45.09 L 256.00 45.48" fill="none" stroke="#5C6578" stroke-width="1.75" stroke-linecap="round" stroke-linejoin="round"/>
<path d="M 24.00 68.00 L 24.58 66.74 L 25.16 65.49 L 25.74 64.24 L 26.32 62.99 L 26.90 61.74 L 27.48 60.50 L 28.06 59.27 L 28.64 58.05 L 29.22 56.84 L 29.80 55.64 L 30.38 54.45 L 30.96 53.28 L 31.54 52.11 L 32.12 50.97 L 32.70 49.84 L 33.28 48.73 L 33.86 47.64 L 34.44 46.57 L 35.02 45.52 L 35.60 44.49 L 36.18 43.48 L 36.76 42.50 L 37.34 41.55 L 37.92 40.62 L 38.50 39.72 L 39.08 38.84 L 39.66 38.00 L 40.24 37.18 L 40.82 36.39 L 41.40 35.64 L 41.98 34.92 L 42.56 34.23 L 43.14 33.57 L 43.72 32.95 L 44.30 32.36 L 44.88 31.81 L 45.46 31.29 L 46.04 30.81 L 46.62 30.36 L 47.20 29.96 L 47.78 29.59 L 48.36 29.26 L 48.94 28.96 L 49.52 28.71 L 50.10 28.49 L 50.68 28.32 L 51.26 28.18 L 51.84 28.08 L 52.42 28.02 L 53.00 28.00 L 53.58 28.02 L 54.16 28.08 L 54.74 28.18 L 55.32 28.32 L 55.90 28.49 L 56.48 28.71 L 57.06 28.96 L 57.64 29.26 L 58.22 29.59 L 58.80 29.96 L 59.38 30.36 L 59.96 30.81 L 60.54 31.29 L 61.12 31.81 L 61.70 32.36 L 62.28 32.95 L 62.86 33.57 L 63.44 34.23 L 64.02 34.92 L 64.60 35.64 L 65.18 36.39 L 65.76 37.18 L 66.34 38.00 L 66.92 38.84 L 67.50 39.72 L 68.08 40.62 L 68.66 41.55 L 69.24 42.50 L 69.82 43.48 L 70.40 44.49 L 70.98 45.52 L 71.56 46.57 L 72.14 47.64 L 72.72 48.73 L 73.30 49.84 L 73.88 50.97 L 74.46 52.11 L 75.04 53.28 L 75.62 54.45 L 76.20 55.64 L 76.78 56.84 L 77.36 58.05 L 77.94 59.27 L 78.52 60.50 L 79.10 61.74 L 79.68 62.99 L 80.26 64.24 L 80.84 65.49 L 81.42 66.74 L 82.00 68.00 L 82.58 69.26 L 83.16 70.51 L 83.74 71.76 L 84.32 73.01 L 84.90 74.26 L 85.48 75.50 L 86.06 76.73 L 86.64 77.95 L 87.22 79.16 L 87.80 80.36 L 88.38 81.55 L 88.96 82.72 L 89.54 83.89 L 90.12 85.03 L 90.70 86.16 L 91.28 87.27 L 91.86 88.36 L 92.44 89.43 L 93.02 90.48 L 93.60 91.51 L 94.18 92.52 L 94.76 93.50 L 95.34 94.45 L 95.92 95.38 L 96.50 96.28 L 97.08 97.16 L 97.66 98.00 L 98.24 98.82 L 98.82 99.61 L 99.40 100.36 L 99.98 101.08 L 100.56 101.77 L 101.14 102.43 L 101.72 103.05 L 102.30 103.64 L 102.88 104.19 L 103.46 104.71 L 104.04 105.19 L 104.62 105.64 L 105.20 106.04 L 105.78 106.41 L 106.36 106.74 L 106.94 107.04 L 107.52 107.29 L 108.10 107.51 L 108.68 107.68 L 109.26 107.82 L 109.84 107.92 L 110.42 107.98 L 111.00 108.00 L 111.58 107.98 L 112.16 107.92 L 112.74 107.82 L 113.32 107.68 L 113.90 107.51 L 114.48 107.29 L 115.06 107.04 L 115.64 106.74 L 116.22 106.41 L 116.80 106.04 L 117.38 105.64 L 117.96 105.19 L 118.54 104.71 L 119.12 104.19 L 119.70 103.64 L 120.28 103.05 L 120.86 102.43 L 121.44 101.77 L 122.02 101.08 L 122.60 100.36 L 123.18 99.61 L 123.76 98.82 L 124.34 98.00 L 124.92 97.16 L 125.50 96.28 L 126.08 95.38 L 126.66 94.45 L 127.24 93.50 L 127.82 92.52 L 128.40 91.51 L 128.98 90.48 L 129.56 89.43 L 130.14 88.36 L 130.72 87.27 L 131.30 86.16 L 131.88 85.03 L 132.46 83.89 L 133.04 82.72 L 133.62 81.55 L 134.20 80.36 L 134.78 79.16 L 135.36 77.95 L 135.94 76.73 L 136.52 75.50 L 137.10 74.26 L 137.68 73.01 L 138.26 71.76 L 138.84 70.51 L 139.42 69.26 L 140.00 68.00 L 140.58 66.74 L 141.16 65.49 L 141.74 64.24 L 142.32 62.99 L 142.90 61.74 L 143.48 60.50 L 144.06 59.27 L 144.64 58.05 L 145.22 56.84 L 145.80 55.64 L 146.38 54.45 L 146.96 53.28 L 147.54 52.11 L 148.12 50.97 L 148.70 49.84 L 149.28 48.73 L 149.86 47.64 L 150.44 46.57 L 151.02 45.52 L 151.60 44.49 L 152.18 43.48 L 152.76 42.50 L 153.34 41.55 L 153.92 40.62 L 154.50 39.72 L 155.08 38.84 L 155.66 38.00 L 156.24 37.18 L 156.82 36.39 L 157.40 35.64 L 157.98 34.92 L 158.56 34.23 L 159.14 33.57 L 159.72 32.95 L 160.30 32.36 L 160.88 31.81 L 161.46 31.29 L 162.04 30.81 L 162.62 30.36 L 163.20 29.96 L 163.78 29.59 L 164.36 29.26 L 164.94 28.96 L 165.52 28.71 L 166.10 28.49 L 166.68 28.32 L 167.26 28.18 L 167.84 28.08 L 168.42 28.02 L 169.00 28.00 L 169.58 28.02 L 170.16 28.08 L 170.74 28.18 L 171.32 28.32 L 171.90 28.49 L 172.48 28.71 L 173.06 28.96 L 173.64 29.26 L 174.22 29.59 L 174.80 29.96 L 175.38 30.36 L 175.96 30.81 L 176.54 31.29 L 177.12 31.81 L 177.70 32.36 L 178.28 32.95 L 178.86 33.57 L 179.44 34.23 L 180.02 34.92 L 180.60 35.64 L 181.18 36.39 L 181.76 37.18 L 182.34 38.00 L 182.92 38.84 L 183.50 39.72 L 184.08 40.62 L 184.66 41.55 L 185.24 42.50 L 185.82 43.48 L 186.40 44.49 L 186.98 45.52 L 187.56 46.57 L 188.14 47.64 L 188.72 48.73 L 189.30 49.84 L 189.88 50.97 L 190.46 52.11 L 191.04 53.28 L 191.62 54.45 L 192.20 55.64 L 192.78 56.84 L 193.36 58.05 L 193.94 59.27 L 194.52 60.50 L 195.10 61.74 L 195.68 62.99 L 196.26 64.24 L 196.84 65.49 L 197.42 66.74 L 198.00 68.00 L 198.58 69.26 L 199.16 70.51 L 199.74 71.76 L 200.32 73.01 L 200.90 74.26 L 201.48 75.50 L 202.06 76.73 L 202.64 77.95 L 203.22 79.16 L 203.80 80.36 L 204.38 81.55 L 204.96 82.72 L 205.54 83.89 L 206.12 85.03 L 206.70 86.16 L 207.28 87.27 L 207.86 88.36 L 208.44 89.43 L 209.02 90.48 L 209.60 91.51 L 210.18 92.52 L 210.76 93.50 L 211.34 94.45 L 211.92 95.38 L 212.50 96.28 L 213.08 97.16 L 213.66 98.00 L 214.24 98.82 L 214.82 99.61 L 215.40 100.36 L 215.98 101.08 L 216.56 101.77 L 217.14 102.43 L 217.72 103.05 L 218.30 103.64 L 218.88 104.19 L 219.46 104.71 L 220.04 105.19 L 220.62 105.64 L 221.20 106.04 L 221.78 106.41 L 222.36 106.74 L 222.94 107.04 L 223.52 107.29 L 224.10 107.51 L 224.68 107.68 L 225.26 107.82 L 225.84 107.92 L 226.42 107.98 L 227.00 108.00 L 227.58 107.98 L 228.16 107.92 L 228.74 107.82 L 229.32 107.68 L 229.90 107.51 L 230.48 107.29 L 231.06 107.04 L 231.64 106.74 L 232.22 106.41 L 232.80 106.04 L 233.38 105.64 L 233.96 105.19 L 234.54 104.71 L 235.12 104.19 L 235.70 103.64 L 236.28 103.05 L 236.86 102.43 L 237.44 101.77 L 238.02 101.08 L 238.60 100.36 L 239.18 99.61 L 239.76 98.82 L 240.34 98.00 L 240.92 97.16 L 241.50 96.28 L 242.08 95.38 L 242.66 94.45 L 243.24 93.50 L 243.82 92.52 L 244.40 91.51 L 244.98 90.48 L 245.56 89.43 L 246.14 88.36 L 246.72 87.27 L 247.30 86.16 L 247.88 85.03 L 248.46 83.89 L 249.04 82.72 L 249.62 81.55 L 250.20 80.36 L 250.78 79.16 L 251.36 77.95 L 251.94 76.73 L 252.52 75.50 L 253.10 74.26 L 253.68 73.01 L 254.26 71.76 L 254.84 70.51 L 255.42 69.26 L 256.00 68.00" fill="none" stroke="#1A7A44" stroke-width="2.0" stroke-linecap="round" stroke-linejoin="round"/>
<text x="140.0" y="155" text-anchor="middle" font-size="11" font-weight="600" letter-spacing="0.1em" fill="#5C6578">NETWORK UNBALANCE</text>
</svg>